<svg width="45" height="45" viewBox="0 0 45 45" fill="none" xmlns="http://www.w3.org/2000/svg">
<g clip-path="url(#clip0)">
<path d="M22.504 45.008C34.9326 45.008 45.008 34.9326 45.008 22.504C45.008 10.0754 34.9326 0 22.504 0C10.0754 0 0 10.0754 0 22.504C0 34.9326 10.0754 45.008 22.504 45.008Z" fill="#465C81"/>
<path d="M24.8913 18.5889C24.8913 19.1777 24.8594 19.7745 24.8992 20.3634C24.947 20.9761 24.7162 21.8196 25.4324 22.0743C26.252 22.3767 26.6101 21.5093 26.9921 21C28.0265 19.6154 28.9019 18.1273 29.4987 16.504C29.8249 15.6286 30.2467 15.1273 31.3051 15.1989C32.5783 15.2865 33.8594 15.1194 35.1326 15.1432C36.5809 15.1592 36.8992 15.6684 36.2785 16.9894C35.4748 18.6923 34.2414 20.1167 33.1194 21.6127C31.5995 23.634 31.5915 23.7374 33.4775 25.4642C34.496 26.4032 35.4907 27.3581 36.2069 28.5517C36.8992 29.6976 36.6287 30.3581 35.3157 30.4854C32.3952 30.7719 29.4589 31.0106 27.557 27.9867C27.199 27.4138 26.6499 26.6101 25.7984 26.9682C25.0663 27.2785 24.931 28.1459 24.9549 28.8939C25.0027 30.2228 24.2944 30.5729 23.1247 30.5889C19.5279 30.6366 16.6234 29.2599 14.3793 26.4748C11.9841 23.5066 10.2175 20.1565 8.63396 16.7109C8.10876 15.565 8.53051 15.1671 9.63661 15.1432C9.78781 15.1432 9.939 15.1592 10.0822 15.1353C12.756 14.7056 14.7295 15.3183 15.5491 18.2785C15.8913 19.5278 16.7905 20.618 17.6578 21.6286C17.9443 21.9549 18.2547 22.3607 18.7719 22.1618C19.1857 22.0027 19.2653 21.5729 19.321 21.183C19.5119 19.8621 19.4642 18.5332 19.313 17.2042C19.2493 16.6552 19.0345 16.1698 18.4854 15.8912C18.2149 15.756 17.6976 15.7878 17.8647 15.2706C17.9761 14.9204 18.3422 14.7772 18.6764 14.6976C20.4271 14.2838 22.1777 14.2759 23.9364 14.6499C24.7162 14.817 24.931 15.3899 24.947 16.0743C24.9708 16.9098 24.9549 17.7454 24.9549 18.5809C24.939 18.5889 24.9151 18.5889 24.8913 18.5889Z" fill="#FCFCFD"/>
</g>
<defs>
<clipPath id="clip0">
<rect width="45" height="45" fill="white"/>
</clipPath>
</defs>
</svg>
