<svg width="45" height="45" viewBox="0 0 45 45" fill="none" xmlns="http://www.w3.org/2000/svg">
<g clip-path="url(#clip0)">
<path d="M22.504 45.008C34.9326 45.008 45.008 34.9326 45.008 22.504C45.008 10.0754 34.9326 0 22.504 0C10.0754 0 0 10.0754 0 22.504C0 34.9326 10.0754 45.008 22.504 45.008Z" fill="white"/>
<path d="M8.29178 15.1353C10.7347 10.3369 14.5703 7.33687 19.878 6.39788C24.7878 5.5305 29.1565 6.88329 32.9523 10.1141C33.374 10.4721 33.4615 10.687 33.008 11.1088C31.7507 12.2865 30.5332 13.5119 29.3077 14.7215C29.1247 14.8966 29.0133 15.0477 28.7268 14.809C23.5783 10.4642 15.7798 12.5491 13.3448 18.9708C13.3289 19.0106 13.305 19.0424 13.2812 19.0743C11.626 17.7613 9.95491 16.4483 8.29178 15.1353Z" fill="#DD4A3D"/>
<path d="M13.305 25.9655C14.2202 28.2255 15.6366 30.0716 17.809 31.2334C21.183 33.0398 24.5172 32.8966 27.7798 30.8992C27.9151 30.8196 28.0504 30.7401 28.1936 30.6605C29.8806 31.9655 31.5597 33.2706 33.2467 34.5756C29.8806 37.7109 25.878 39.1751 21.3183 38.7931C15.4297 38.2918 11.1565 35.2361 8.35543 30.0716C8.29973 29.9682 8.2679 29.8488 8.22015 29.7374C9.92307 28.4801 11.6101 27.2228 13.305 25.9655Z" fill="#52B04D"/>
<path d="M33.2467 34.5836C31.5597 33.2785 29.8806 31.9735 28.1936 30.6684C29.7533 29.4191 30.9708 27.9151 31.679 26.0212C31.87 25.5199 31.7904 25.3846 31.2334 25.3926C28.6313 25.4164 26.0212 25.3846 23.4191 25.4164C22.8621 25.4244 22.7586 25.2493 22.7745 24.7401C22.8064 23.1804 22.7984 21.6127 22.7745 20.0531C22.7666 19.6313 22.8939 19.5199 23.3156 19.5199C28.1459 19.5438 32.9682 19.5438 37.7984 19.5358C38.1565 19.5358 38.252 19.6711 38.2918 19.9655C38.7135 23.061 38.4032 26.0769 37.1777 28.9735C36.2706 31.1141 34.9814 33.008 33.2467 34.5836Z" fill="#557FC0"/>
<path d="M13.305 25.9655C11.6101 27.2228 9.92308 28.4801 8.22812 29.7374C7.38461 28.2175 6.94695 26.5544 6.70822 24.8515C6.2626 21.6923 6.69231 18.6366 7.98143 15.7082C8.06896 15.5093 8.18833 15.3263 8.29178 15.1273C9.95491 16.4403 11.626 17.7533 13.2891 19.0584C12.8753 20.5066 12.6286 21.9708 12.7878 23.4987C12.8753 24.3501 13.1061 25.1538 13.305 25.9655Z" fill="#F9D012"/>
</g>
<defs>
<clipPath id="clip0">
<rect width="45" height="45" fill="white"/>
</clipPath>
</defs>
</svg>
