<svg width="49" height="60" viewBox="0 0 49 60" fill="none" xmlns="http://www.w3.org/2000/svg">
<path d="M35.7891 59.9998C23.8334 59.9998 11.9274 59.9998 0 59.9998C0 44.5366 0 29.0837 0 13.5899C0.110996 13.5899 0.218925 13.5899 0.327468 13.5899C9.83325 13.5899 19.339 13.5892 28.8454 13.5966C28.9993 13.5966 29.1931 13.6584 29.301 13.7619C31.3928 15.771 33.4723 17.793 35.561 19.8052C35.7302 19.968 35.794 20.132 35.794 20.3641C35.7891 33.4564 35.7897 46.5487 35.7897 59.6411C35.7891 59.7507 35.7891 59.8608 35.7891 59.9998ZM27.5331 16.6764C27.3786 16.6764 27.2682 16.6764 27.1584 16.6764C19.2568 16.6764 11.3559 16.6782 3.45436 16.669C3.14406 16.6684 3.06373 16.7456 3.06373 17.0572C3.0717 30.2211 3.07047 43.3851 3.07047 56.549C3.07047 56.658 3.07047 56.7676 3.07047 56.8974C12.9552 56.8974 22.8026 56.8974 32.6659 56.8974C32.6659 45.1267 32.6659 33.3738 32.6659 21.5743C30.9543 21.5743 29.2557 21.5743 27.5325 21.5743C27.5331 19.9282 27.5331 18.3292 27.5331 16.6764Z" fill="#111111"/>
<path d="M45.0999 8.01077C43.3712 8.01077 41.6878 8.01077 39.9573 8.01077C39.9573 6.37017 39.9573 4.7559 39.9573 3.12387C31.7871 3.12387 23.6642 3.12387 15.5032 3.12387C15.5032 3.86091 15.5032 4.5998 15.5032 5.36316C14.4509 5.36316 13.4372 5.36316 12.4027 5.36316C12.4027 3.58544 12.4027 1.81568 12.4027 0.00428514C12.518 0.00428514 12.6259 0.00428514 12.7345 0.00428514C22.2402 0.00428514 31.7466 0.00489731 41.2524 0C41.4646 0 41.6105 0.0642772 41.7602 0.209972C43.8323 2.2246 45.9093 4.23433 47.9894 6.24101C48.1317 6.37813 48.1973 6.51403 48.1973 6.71666C48.1924 19.85 48.193 32.9828 48.193 46.1161C48.193 46.2061 48.193 46.2961 48.193 46.405C46.7029 46.405 45.2385 46.405 43.7569 46.405C43.7569 45.3846 43.7569 44.3794 43.7569 43.3381C44.1297 43.3381 44.4854 43.3283 44.8399 43.3418C45.0422 43.3491 45.1232 43.2781 45.1011 43.0786C45.0925 42.9977 45.0999 42.9157 45.0999 42.8337C45.0999 31.374 45.0999 19.9143 45.0999 8.4552C45.0999 8.3242 45.0999 8.1932 45.0999 8.01077Z" fill="#111111"/>
<path d="M41.8319 52.8842C40.3368 52.8842 38.881 52.8842 37.4018 52.8842C37.4018 51.8607 37.4018 50.8475 37.4018 49.8056C37.8403 49.8056 38.2659 49.8056 38.7154 49.8056C38.7154 38.0184 38.7154 26.26 38.7154 14.4722C37.0155 14.4722 35.323 14.4722 33.593 14.4722C33.593 12.8279 33.593 11.213 33.593 9.57975C25.4241 9.57975 17.2926 9.57975 9.12734 9.57975C9.12734 10.326 9.12734 11.0649 9.12734 11.8239C8.08668 11.8239 7.08036 11.8239 6.04706 11.8239C6.04706 10.0511 6.04706 8.2838 6.04706 6.47853C6.16357 6.47853 6.27334 6.47853 6.3825 6.47853C15.8785 6.47853 25.3744 6.47914 34.8704 6.47485C35.0887 6.47485 35.2488 6.52995 35.41 6.68727C37.4668 8.68844 39.5298 10.6835 41.5976 12.6736C41.765 12.8352 41.8361 12.9968 41.8361 13.2307C41.8306 26.3236 41.8312 39.416 41.8312 52.5089C41.8319 52.6283 41.8319 52.7471 41.8319 52.8842Z" fill="#111111"/>
<path d="M17.9052 26.3253C21.0634 26.3253 24.2216 26.3424 27.3791 26.3155C28.4339 26.3063 28.8859 27.3005 28.5762 28.0663C28.4045 28.4899 28.1009 28.7458 27.6398 28.7954C27.4779 28.8131 27.3135 28.8192 27.1504 28.8192C20.9573 28.8205 14.7636 28.8211 8.57056 28.8174C8.33815 28.8174 8.0953 28.807 7.87454 28.7415C7.30423 28.5732 6.99577 27.9794 7.10002 27.3152C7.19017 26.7422 7.63231 26.3345 8.21673 26.3308C9.80072 26.321 11.3847 26.3253 12.9693 26.3253C14.6146 26.3247 16.2599 26.3253 17.9052 26.3253Z" fill="#111111"/>
<path d="M17.8581 43.5383C21.0359 43.5383 24.2137 43.537 27.3921 43.5389C28.2893 43.5395 28.8252 44.2141 28.6327 45.0883C28.5186 45.6055 28.177 45.9288 27.6558 46.0059C27.535 46.0236 27.4117 46.0304 27.2897 46.0304C21.0157 46.0316 14.7416 46.0316 8.46762 46.031C7.75565 46.031 7.34724 45.7818 7.15836 45.2419C6.84684 44.3494 7.41224 43.5395 8.3554 43.5389C11.5228 43.5364 14.6901 43.5383 17.8581 43.5383Z" fill="#111111"/>
<path d="M17.858 32.2065C21.0358 32.2065 24.2136 32.2206 27.3914 32.1985C28.4394 32.1912 28.9043 33.1921 28.5602 33.9879C28.3898 34.3821 28.0911 34.6233 27.6551 34.6717C27.4932 34.6894 27.3289 34.698 27.1664 34.698C20.9745 34.6992 14.7821 34.6998 8.5902 34.6962C8.34797 34.6962 8.09409 34.6845 7.86474 34.6153C7.30363 34.4464 7.00621 33.874 7.09942 33.2135C7.1816 32.6326 7.63478 32.2151 8.2333 32.212C10.154 32.2028 12.0752 32.2071 13.9965 32.2065C15.2831 32.2059 16.5709 32.2065 17.858 32.2065Z" fill="#111111"/>
<path d="M17.8592 37.6562C21.037 37.6562 24.2148 37.6703 27.3926 37.6482C28.4406 37.6409 28.9048 38.643 28.5596 39.4388C28.3891 39.8331 28.0892 40.0736 27.6538 40.1214C27.5017 40.1379 27.3484 40.1471 27.1951 40.1471C20.9824 40.1483 14.7697 40.1489 8.55701 40.1446C8.32459 40.1446 8.08175 40.1312 7.86221 40.0644C7.30171 39.893 7.00491 39.3219 7.09873 38.6614C7.17968 38.0933 7.62734 37.6733 8.20317 37.6623C8.94887 37.6476 9.69518 37.6556 10.4409 37.6556C12.9134 37.6556 15.3866 37.6556 17.8592 37.6562Z" fill="#111111"/>
<path d="M17.5257 51.5768C14.3785 51.5768 11.2314 51.578 8.08428 51.5762C7.35085 51.5756 6.95961 51.324 6.77809 50.7516C6.50336 49.8884 7.03933 49.1257 7.94079 49.0963C8.02235 49.0938 8.10452 49.0938 8.18608 49.0938C14.3988 49.0938 20.6109 49.0932 26.8236 49.0951C27.0272 49.0951 27.2369 49.0902 27.4331 49.1355C27.9912 49.2646 28.3665 49.8474 28.3027 50.4473C28.2334 51.0981 27.8164 51.5284 27.2123 51.567C27.0597 51.5768 26.9057 51.5762 26.753 51.5762C23.677 51.5768 20.601 51.5768 17.5257 51.5768Z" fill="#111111"/>
</svg>
