<svg width="126" height="156" viewBox="0 0 126 156" fill="none" xmlns="http://www.w3.org/2000/svg">
<path d="M93.0517 156C61.9669 156 31.0114 156 0 156C0 115.796 0 75.6182 0 35.3341C0.288589 35.3341 0.569206 35.3341 0.851418 35.3341C25.5664 35.3341 50.2815 35.3325 74.9981 35.3516C75.3983 35.3516 75.9021 35.5124 76.1827 35.7814C81.6213 41.0051 87.028 46.2622 92.4585 51.4939C92.8986 51.9173 93.0644 52.3438 93.0644 52.9471C93.0517 86.9872 93.0533 121.027 93.0533 155.067C93.0517 155.352 93.0517 155.639 93.0517 156ZM71.5861 43.3591C71.1843 43.3591 70.8973 43.3591 70.6119 43.3591C50.0678 43.3591 29.5254 43.3639 8.98134 43.34C8.17457 43.3384 7.9657 43.539 7.9657 44.3491C7.98643 78.5754 7.98324 112.802 7.98324 147.028C7.98324 147.311 7.98324 147.596 7.98324 147.934C33.6836 147.934 59.2867 147.934 84.9313 147.934C84.9313 117.33 84.9313 86.7723 84.9313 56.0937C80.4813 56.0937 76.0648 56.0937 71.5845 56.0937C71.5861 51.8138 71.5861 47.6565 71.5861 43.3591Z" fill="white"/>
<path d="M117.26 20.828C112.765 20.828 108.388 20.828 103.889 20.828C103.889 16.5625 103.889 12.3653 103.889 8.12206C82.6465 8.12206 61.5269 8.12206 40.3084 8.12206C40.3084 10.0384 40.3084 11.9595 40.3084 13.9442C37.5724 13.9442 34.9368 13.9442 32.247 13.9442C32.247 9.32215 32.247 4.72076 32.247 0.0111414C32.5468 0.0111414 32.8274 0.0111414 33.1096 0.0111414C57.8246 0.0111414 82.5413 0.012733 107.256 0C107.808 0 108.187 0.167121 108.576 0.545928C113.964 5.78397 119.364 11.0093 124.773 16.2266C125.142 16.5831 125.313 16.9365 125.313 17.4633C125.3 51.61 125.302 85.7552 125.302 119.902C125.302 120.136 125.302 120.37 125.302 120.653C121.427 120.653 117.62 120.653 113.768 120.653C113.768 118 113.768 115.386 113.768 112.679C114.737 112.679 115.662 112.654 116.584 112.689C117.11 112.708 117.32 112.523 117.263 112.004C117.241 111.794 117.26 111.581 117.26 111.368C117.26 81.5724 117.26 51.7772 117.26 21.9835C117.26 21.6429 117.26 21.3023 117.26 20.828Z" fill="white"/>
<path d="M108.763 137.499C104.876 137.499 101.091 137.499 97.245 137.499C97.245 134.838 97.245 132.204 97.245 129.495C98.385 129.495 99.4915 129.495 100.66 129.495C100.66 98.8479 100.66 68.2759 100.66 37.6276C96.2405 37.6276 91.8399 37.6276 87.3421 37.6276C87.3421 33.3525 87.3421 29.1538 87.3421 24.9073C66.1028 24.9073 44.9609 24.9073 23.7313 24.9073C23.7313 26.8475 23.7313 28.7686 23.7313 30.7422C21.0255 30.7422 18.4091 30.7422 15.7225 30.7422C15.7225 26.1329 15.7225 21.5379 15.7225 16.8441C16.0255 16.8441 16.3109 16.8441 16.5947 16.8441C41.2842 16.8441 65.9737 16.8457 90.6632 16.8346C91.2308 16.8346 91.647 16.9778 92.0663 17.3869C97.414 22.5899 102.778 27.777 108.154 32.9514C108.589 33.3716 108.774 33.7918 108.774 34.3998C108.76 68.4415 108.761 102.482 108.761 136.523C108.763 136.834 108.763 137.142 108.763 137.499Z" fill="white"/>
<path d="M46.5537 68.4463C54.7649 68.4463 62.9761 68.4909 71.1858 68.4208C73.9282 68.3969 75.1033 70.9817 74.2981 72.9729C73.8517 74.0743 73.0624 74.7396 71.8634 74.8685C71.4425 74.9147 71.0152 74.9306 70.5911 74.9306C54.4891 74.9338 38.3855 74.9353 22.2835 74.9258C21.6792 74.9258 21.0478 74.8987 20.4738 74.7284C18.991 74.2907 18.189 72.7469 18.4601 71.0199C18.6944 69.5302 19.844 68.4702 21.3635 68.4606C25.4819 68.4351 29.6002 68.4463 33.7202 68.4463C37.998 68.4447 42.2758 68.4463 46.5537 68.4463Z" fill="white"/>
<path d="M46.431 113.2C54.6932 113.2 62.9555 113.196 71.2193 113.201C73.552 113.203 74.9455 114.957 74.4448 117.23C74.1483 118.575 73.2602 119.415 71.9049 119.615C71.5908 119.662 71.2704 119.679 70.9531 119.679C54.6406 119.682 38.3281 119.682 22.0157 119.681C20.1646 119.681 19.1027 119.033 18.6116 117.629C17.8016 115.309 19.2717 113.203 21.7239 113.201C29.9591 113.195 38.1942 113.2 46.431 113.2Z" fill="white"/>
<path d="M46.4309 83.737C54.6932 83.737 62.9555 83.7736 71.2177 83.7163C73.9426 83.6972 75.1511 86.2995 74.2567 88.3686C73.8134 89.3936 73.0369 90.0207 71.9033 90.1465C71.4824 90.1926 71.0551 90.2149 70.6326 90.2149C54.5337 90.2181 38.4333 90.2197 22.3345 90.2101C21.7047 90.2101 21.0446 90.1799 20.4483 90C18.9894 89.5607 18.2161 88.0726 18.4585 86.3552C18.6722 84.8448 19.8504 83.7593 21.4066 83.7513C26.4003 83.7274 31.3956 83.7386 36.3909 83.737C39.736 83.7354 43.0842 83.737 46.4309 83.737Z" fill="white"/>
<path d="M46.4341 97.9057C54.6964 97.9057 62.9586 97.9423 71.2209 97.885C73.9458 97.8659 75.1527 100.471 74.2551 102.541C73.8118 103.566 73.0322 104.191 71.9001 104.315C71.5047 104.358 71.1061 104.382 70.7075 104.382C54.5545 104.385 38.4014 104.387 22.2484 104.376C21.6441 104.376 21.0127 104.341 20.4419 104.167C18.9847 103.721 18.213 102.237 18.4569 100.519C18.6674 99.0421 19.8313 97.9502 21.3284 97.9216C23.2673 97.8834 25.2077 97.9041 27.1465 97.9041C33.5751 97.9041 40.0054 97.9041 46.4341 97.9057Z" fill="white"/>
<path d="M45.5668 134.099C37.3842 134.099 29.2017 134.102 21.0192 134.098C19.1123 134.096 18.095 133.442 17.6231 131.954C16.9088 129.71 18.3023 127.726 20.6461 127.65C20.8581 127.644 21.0718 127.644 21.2838 127.644C37.4369 127.644 53.5883 127.642 69.7413 127.647C70.2706 127.647 70.8159 127.634 71.3261 127.752C72.7771 128.088 73.7528 129.603 73.587 131.163C73.4069 132.855 72.3227 133.973 70.7522 134.074C70.3551 134.099 69.955 134.098 69.5579 134.098C61.5604 134.099 53.5628 134.099 45.5668 134.099Z" fill="white"/>
</svg>
