<svg width="164" height="164" viewBox="0 0 164 164" fill="none" xmlns="http://www.w3.org/2000/svg">
<path d="M38.8607 117.681C34.3132 117.681 29.7637 117.79 25.2204 117.661C12.4809 117.3 1.92077 108.035 0.258567 95.4072C-1.09172 85.1364 2.88936 76.9719 11.1983 70.8911C11.7975 70.4518 11.9617 70.1726 11.6334 69.45C4.61313 53.9832 14.3155 36.0592 31.0935 33.4417C33.0963 33.1296 35.1033 32.9572 37.1185 33.1502C37.808 33.2158 37.9988 33.0167 38.1199 32.3926C39.2608 26.5254 41.6105 21.1693 45.2304 16.425C52.5913 6.77828 62.3367 1.33392 74.4277 0.180172C92.8967 -1.58329 110.446 9.75502 116.484 27.3178C118.195 32.2982 118.835 37.4243 118.505 42.6696C118.445 43.5975 118.597 43.8089 119.582 43.6283C139.914 39.9043 159.65 53.5275 163.397 73.8371C166.93 92.9847 154.554 111.865 135.373 116.597C132.373 117.339 129.328 117.706 126.239 117.704C120.838 117.702 115.435 117.778 110.036 117.653C106.418 117.569 103.539 114.666 103.342 111.243C103.126 107.507 105.536 104.426 109.221 103.752C109.72 103.662 110.241 103.664 110.752 103.664C116.018 103.658 121.283 103.699 126.547 103.648C137.294 103.543 146.693 95.982 149.12 85.547C152.024 73.0672 143.947 60.3699 131.39 57.699C123.929 56.1121 117.228 57.7688 111.286 62.5214C106.947 65.9887 100.883 64.1781 99.5783 58.9883C99.0879 57.0421 99.4265 55.1986 100.489 53.4782C102.892 49.5859 104.251 45.3548 104.341 40.7768C104.596 27.9542 95.589 16.9444 82.9522 14.563C68.8296 11.9003 55.3186 20.7279 52.1829 34.6919C51.6638 36.9994 51.4729 39.3295 51.7828 41.715C52.1439 44.4864 51.1179 46.7898 48.8195 48.3849C46.4576 50.0211 43.8924 50.1771 41.3499 48.8284C38.481 47.3071 35.4993 46.6974 32.3453 47.572C27.8039 48.8304 24.8653 51.8133 23.8249 56.3893C22.7825 60.9755 24.3338 64.8227 27.9025 67.8241C29.5647 69.2221 30.603 70.9096 30.7077 73.0816C30.8924 76.8754 28.2636 79.8871 24.3338 80.4701C18.6618 81.3118 14.3811 86.0376 14.2621 91.5887C14.1185 98.2238 19.3267 103.621 25.996 103.65C35.1936 103.689 44.3911 103.65 53.5886 103.668C57.344 103.676 60.4365 106.618 60.6397 110.305C60.851 114.111 57.8857 117.552 54.036 117.649C48.9796 117.776 43.9171 117.679 38.8586 117.679C38.8607 117.677 38.8607 117.679 38.8607 117.681Z" fill="white"/>
<path d="M74.8464 139.887C74.8464 139.242 74.8464 138.867 74.8464 138.493C74.8464 116.742 74.8443 94.9895 74.8484 73.2388C74.8484 69.679 77.1406 66.7885 80.4568 66.1131C85.0227 65.1851 89.0305 68.4226 89.1187 73.1423C89.1577 75.1931 89.1269 77.2461 89.1269 79.299C89.1269 98.9989 89.1269 118.697 89.1269 138.397C89.1269 138.803 89.1269 139.212 89.1269 139.637C89.64 139.643 89.8082 139.249 90.0565 139.004C93.7893 135.34 97.4852 131.636 101.249 128.003C103.327 125.997 105.854 125.486 108.56 126.44C111.314 127.411 112.921 129.433 113.256 132.359C113.518 134.654 112.683 136.571 111.054 138.179C103.996 145.142 96.9434 152.112 89.8903 159.082C88.9669 159.995 88.0537 160.921 87.1179 161.822C84.0993 164.731 79.8166 164.734 76.8205 161.786C68.8522 153.943 60.8962 146.087 52.9504 138.222C49.9626 135.264 49.8723 130.99 52.6939 128.142C55.5238 125.285 59.9543 125.278 62.9052 128.165C66.5723 131.751 70.2127 135.364 73.8655 138.963C74.122 139.218 74.3949 139.462 74.8464 139.887Z" fill="white"/>
</svg>
