<svg width="227" height="98" viewBox="0 0 227 98" fill="none" xmlns="http://www.w3.org/2000/svg">
<g clip-path="url(#clip0)">
<path d="M31.68 64.06C30.52 65.9 29.46 67.64 28.35 69.35C26.87 71.63 24.07 72.03 22.17 70.25C20.74 68.92 20.54 66.85 21.67 65.02C22.75 63.29 23.83 61.56 24.96 59.76C24 59.14 23.06 58.55 22.14 57.94C21.57 57.56 20.97 57.21 20.49 56.74C19.11 55.4 18.93 53.51 19.99 51.73C21.55 49.11 23.15 46.51 24.74 43.91C30.69 34.14 36.64 24.38 42.58 14.6C44.31 11.75 46.44 11.23 49.22 13.01C53.67 15.86 58.11 18.72 62.56 21.58C64.79 23.01 65.32 25.14 63.96 27.43C62.16 30.45 60.32 33.44 58.49 36.44C58.35 36.67 58.21 36.9 58.02 37.23C58.71 37.38 59.33 37.53 59.96 37.65C65.48 38.77 70.82 40.43 75.79 43.12C80.29 45.55 84.2 48.67 86.95 53.06C89.64 57.36 90.69 62.07 90.3 67.11C89.83 73.01 87.74 78.39 84.95 83.52C83.83 85.57 82.59 87.55 81.36 89.65C81.66 89.66 81.94 89.69 82.22 89.69C85.19 89.69 88.16 89.69 91.13 89.69C92.74 89.69 94.06 90.25 94.91 91.68C96.26 93.94 95 96.91 92.44 97.49C91.91 97.61 91.36 97.64 90.82 97.64C62.09 97.65 33.37 97.64 4.64002 97.65C2.92002 97.65 1.46002 97.19 0.540024 95.62C-0.939976 93.11 0.740024 89.9 3.65002 89.68C4.03002 89.65 4.41002 89.66 4.79002 89.66C26.62 89.66 48.45 89.65 70.28 89.68C71.13 89.68 71.64 89.44 72.15 88.74C74.96 84.84 77.64 80.88 79.61 76.48C81.19 72.95 82.36 69.33 82.43 65.41C82.51 60.46 80.5 56.49 76.83 53.31C72.76 49.79 67.92 47.8 62.79 46.47C60.08 45.77 57.31 45.32 54.57 44.72C53.79 44.55 53.37 44.79 52.95 45.49C49.09 51.91 45.19 58.3 41.29 64.69C39.72 67.27 37.56 67.76 34.98 66.15C33.89 65.49 32.83 64.8 31.68 64.06ZM47.72 21.5C41.37 31.93 35.06 42.29 28.73 52.7C31.29 54.35 33.78 55.94 36.3 57.56C42.65 47.12 48.95 36.78 55.29 26.37C52.76 24.74 50.3 23.16 47.72 21.5Z" fill="white"/>
<path d="M24.51 77.36C28.54 77.36 32.58 77.35 36.61 77.36C38.82 77.37 40.29 78.47 40.78 80.42C41.35 82.71 39.72 85.02 37.37 85.25C37.02 85.28 36.66 85.3 36.31 85.3C28.41 85.3 20.51 85.3 12.6 85.3C11.63 85.3 10.71 85.19 9.87002 84.63C8.44002 83.68 7.77002 81.95 8.20002 80.27C8.61002 78.68 10.07 77.41 11.76 77.39C16.01 77.34 20.26 77.37 24.51 77.37C24.51 77.38 24.51 77.37 24.51 77.36Z" fill="white"/>
<path d="M69.21 11.84C69.17 14.99 66.21 16.92 63.61 15.59C61.8 14.66 60.13 13.46 58.41 12.37C56.87 11.39 55.32 10.43 53.83 9.38997C52.45 8.41997 51.94 7.01997 52.26 5.37997C52.59 3.71997 53.87 2.46997 55.55 2.29997C56.34 2.21997 57.31 2.32997 57.97 2.72997C61.22 4.70997 64.41 6.77997 67.6 8.87997C68.71 9.59997 69.21 10.74 69.21 11.84Z" fill="white"/>
<path d="M107.14 30.78V10.02C107.14 6.83 107.96 4.36 109.61 2.62C111.25 0.88 113.61 0 116.68 0C119.75 0 122.1 0.87 123.73 2.62C125.36 4.36 126.18 6.83 126.18 10.02V30.78C126.18 33.97 125.36 36.44 123.73 38.18C122.09 39.92 119.74 40.8 116.68 40.8C113.61 40.8 111.26 39.93 109.61 38.18C107.97 36.44 107.14 33.97 107.14 30.78ZM113.41 31.17C113.41 33.8 114.5 35.12 116.68 35.12C118.84 35.12 119.92 33.8 119.92 31.17V9.63C119.92 7.01 118.84 5.71 116.68 5.71C114.5 5.71 113.41 7.02 113.41 9.63V31.17Z" fill="white"/>
<path d="M130.19 40.36V0.450012H138.64L145.08 24.36V0.450012H150.67V40.36H144.22L136.45 11.47V40.36H130.19Z" fill="white"/>
<path d="M154.57 40.36V0.450012H160.83V34.66H171.16V40.37H154.57V40.36Z" fill="white"/>
<path d="M173.89 40.36V0.450012H180.15V40.36H173.89Z" fill="white"/>
<path d="M184.66 40.36V0.450012H193.11L199.55 24.36V0.450012H205.14V40.36H198.69L190.92 11.47V40.36H184.66Z" fill="white"/>
<path d="M209.04 40.36V0.450012H226.13V6.16001H215.3V17.29H223.9V22.97H215.3V34.66H226.13V40.37H209.04V40.36Z" fill="white"/>
<path d="M107.67 92.36V52.45H124.76V58.16H113.93V69.29H122.53V74.97H113.93V86.66H124.76V92.37H107.67V92.36Z" fill="white"/>
<path d="M127.21 92.36L134.22 71.79L127.65 52.45H133.91L138.67 67.25L143.5 52.45H149L142.44 72.03L149.42 92.36H143.16L138.34 77.52L133.47 92.36H127.21Z" fill="white"/>
<path d="M153.12 92.36V52.45H162.35C165.44 52.45 167.77 53.29 169.34 54.98C170.91 56.67 171.69 59.12 171.69 62.33V67.51C171.69 70.72 170.91 73.17 169.34 74.84C167.78 76.52 165.45 77.36 162.36 77.36H159.39V92.36H153.12ZM159.38 71.68H162.36C163.4 71.68 164.17 71.39 164.67 70.82C165.17 70.25 165.42 69.27 165.42 67.9V61.92C165.42 60.55 165.17 59.58 164.67 59.01C164.17 58.44 163.4 58.16 162.36 58.16H159.38V71.68Z" fill="white"/>
</g>
<defs>
<clipPath id="clip0">
<rect width="226.13" height="97.67" fill="white"/>
</clipPath>
</defs>
</svg>
