<svg width="99" height="99" viewBox="0 0 99 99" fill="none" xmlns="http://www.w3.org/2000/svg">
<g clip-path="url(#clip0)">
<path d="M77.5251 8.6349C77.7731 8.34593 78.021 8.03421 78.2918 7.74296C78.9425 7.04899 79.7342 6.87834 80.6147 7.19461C81.5065 7.51771 82.0367 8.18893 82.155 9.115C82.5417 12.1685 82.8944 15.2243 83.2538 18.2801C83.4632 20.0594 82.2505 21.3472 80.46 21.1629C77.7458 20.883 75.0406 20.5326 72.3332 20.2118C71.9191 20.1618 71.5028 20.1345 71.0956 20.0594C70.1855 19.891 69.5553 19.3563 69.2527 18.4894C68.9501 17.6225 69.1549 16.8489 69.8238 16.2118C70.0149 16.0297 70.2287 15.8682 70.5063 15.6361C63.0871 11.1446 55.1742 9.1787 46.6629 9.79077C38.1653 10.4028 30.6187 13.4814 24.0413 18.8352C21.7434 16.5394 19.466 14.2618 17.1636 11.9637C25.6976 4.76455 35.533 0.705342 46.7266 0.0818992C57.893 -0.539268 68.1129 2.37317 77.5251 8.6349ZM77.8277 12.4916C69.3801 6.20939 60.0407 2.9602 49.657 2.9329C39.2688 2.90559 29.8998 6.05921 21.4795 12.2686C21.9914 12.7669 22.4374 13.1901 22.8696 13.627C23.311 14.073 23.741 14.5303 24.1756 14.9831C31.8518 9.55413 40.2744 6.74864 49.6411 6.77822C59.0214 6.8078 67.4212 9.6861 75.1316 15.3403C74.4127 15.982 73.6937 16.6236 72.902 17.329C75.4228 17.627 77.8208 17.9092 80.278 18.2004C79.9799 15.7089 79.6955 13.3153 79.4112 10.9216C79.3634 10.9057 79.3179 10.8898 79.2701 10.8738C78.7969 11.404 78.3236 11.9364 77.8277 12.4916Z" fill="white"/>
<path d="M81.5224 25.7454C83.8294 23.4451 86.1114 21.1697 88.432 18.8557C89.0304 19.6771 89.6651 20.5053 90.2544 21.3654C94.3542 27.3359 97.0365 33.8843 98.2742 41.0221C98.7133 43.5522 98.9658 46.0984 98.9931 48.6649C99.1115 59.334 96.1674 69.0747 90.086 77.8507C89.8585 78.1806 89.7902 78.4059 90.1543 78.6698C90.3659 78.8246 90.5251 79.0521 90.7208 79.2318C91.4306 79.8803 91.6763 80.6653 91.3624 81.58C91.0416 82.5174 90.3499 83.0521 89.3807 83.1796C87.9133 83.373 86.4413 83.5322 84.9715 83.7074C83.4517 83.8895 81.9319 84.0578 80.4144 84.2603C78.4442 84.522 77.1655 83.3229 77.3862 81.3502C77.723 78.3422 78.0983 75.3365 78.4487 72.3307C78.5693 71.3 79.1199 70.5947 80.0823 70.2625C81.0151 69.9394 81.8136 70.2351 82.4575 70.9678C82.5349 71.0543 82.619 71.1339 82.7055 71.2135C82.7282 71.234 82.7669 71.2363 82.7965 71.2477C89.7789 61.3613 93.5624 42.2166 81.5224 25.7454ZM88.0247 23.2926C87.2011 24.1231 86.4549 24.9058 85.6768 25.6499C85.3719 25.9411 85.3378 26.1436 85.5722 26.5191C91.1303 35.3974 93.2166 45.0471 91.8401 55.4159C90.8436 62.9154 87.9246 69.6458 83.3721 75.6755C83.3266 75.7346 83.2606 75.7801 83.0945 75.9303C82.4803 75.2727 81.8864 74.6357 81.2221 73.9257C80.9241 76.4377 80.6397 78.8496 80.3485 81.3001C82.842 81.0021 85.2354 80.7176 87.6289 80.4309C87.6448 80.3809 87.6607 80.3286 87.6744 80.2785C87.0783 79.7279 86.4822 79.1795 85.8747 78.6198C92.1996 70.5514 95.6328 61.4751 96.0287 51.318C96.42 41.1586 93.7126 31.8456 88.0247 23.2926Z" fill="white"/>
<path d="M61.7788 66.8359C61.7788 67.5731 61.7857 68.2215 61.7766 68.8677C61.7584 70.4286 60.6162 71.5777 59.0532 71.5799C51.3792 71.5822 43.7075 71.5822 36.0335 71.5731C34.252 71.5708 33.1714 70.4787 33.1714 68.7062C33.1714 57.6571 33.1714 46.6081 33.1736 35.559C33.1736 33.7615 34.2725 32.6716 36.0676 32.6716C36.5658 32.6716 37.0664 32.6625 37.5646 32.6739C37.8263 32.6807 37.9173 32.5761 37.9127 32.3212C37.9014 31.7388 37.9014 31.1563 37.9105 30.5738C37.9378 29.0812 39.0571 27.9617 40.5519 27.9594C46.5446 27.9526 52.5373 27.9526 58.5277 27.9685C58.7438 27.9685 59.01 28.0959 59.167 28.2507C61.5331 30.592 63.8879 32.9447 66.2313 35.3088C66.3746 35.4544 66.4793 35.7092 66.4793 35.914C66.4906 45.3521 66.4929 54.7902 66.4884 64.2306C66.4884 65.655 65.3531 66.8017 63.9334 66.8336C63.244 66.8495 62.5478 66.8359 61.7788 66.8359ZM52.4622 34.7285C52.2278 34.7285 52.0663 34.7285 51.9025 34.7285C46.6925 34.7285 41.4847 34.7285 36.2746 34.7308C35.3578 34.7308 35.2303 34.856 35.2303 35.757C35.2303 46.6741 35.2303 57.5934 35.2303 68.5105C35.2303 69.3706 35.3851 69.5276 36.2405 69.5276C43.7462 69.5276 51.2518 69.5276 58.7575 69.5276C59.5629 69.5276 59.7198 69.3751 59.7198 68.5674C59.7198 59.78 59.7198 50.9904 59.7198 42.203C59.7198 42.0278 59.7016 41.8526 59.688 41.6365C59.3171 41.6365 59.0032 41.6365 58.6892 41.6365C56.976 41.641 55.2629 41.6524 53.5497 41.6456C52.8626 41.6433 52.4872 41.2474 52.4622 40.5511C52.4554 40.3509 52.4599 40.1507 52.4599 39.9527C52.4622 38.2371 52.4622 36.5261 52.4622 34.7285ZM61.7788 64.8085C62.3886 64.8085 62.9164 64.8108 63.4465 64.8085C64.2883 64.804 64.4407 64.6538 64.4407 63.8256C64.4407 55.0542 64.4407 46.2827 64.4407 37.5113C64.4407 37.3338 64.4248 37.1586 64.4157 36.9698C62.4363 36.9698 60.5025 36.9698 58.5686 36.9698C58.5413 37.0084 58.5117 37.0471 58.4844 37.0858C59.3467 37.9277 60.1953 38.7855 61.0804 39.6023C61.5536 40.0392 61.8016 40.4783 61.7993 41.17C61.7697 48.8425 61.7811 56.5149 61.7811 64.1896C61.7788 64.3694 61.7788 64.5514 61.7788 64.8085ZM57.0397 35.6228C57.0921 35.5909 57.1444 35.559 57.1945 35.5272C57.1945 35.3656 57.1945 35.2041 57.1945 35.0425C57.1945 33.5772 57.1945 32.1142 57.1945 30.6489C57.1945 29.9913 57.1967 29.989 56.5574 29.989C51.4315 29.989 46.308 29.989 41.1821 29.989C40.9659 29.989 40.718 29.9367 40.5428 30.0231C40.3198 30.1346 40.0104 30.3508 39.9922 30.5465C39.9239 31.2336 39.9672 31.9299 39.9672 32.6694C40.2311 32.6694 40.4449 32.6694 40.6588 32.6694C44.9861 32.6694 49.3111 32.6739 53.6384 32.6625C54.0002 32.6625 54.2595 32.7558 54.5098 33.0198C55.3402 33.9003 56.1934 34.7581 57.0397 35.6228ZM62.5797 34.8378C61.4785 33.7388 60.3523 32.6148 59.2557 31.5203C59.2557 32.5624 59.2557 33.6842 59.2557 34.8378C60.4069 34.8378 61.5308 34.8378 62.5797 34.8378ZM57.8201 39.5841C56.7189 38.4829 55.5973 37.3611 54.5508 36.3145C54.5508 37.302 54.5508 38.4237 54.5508 39.5841C54.7396 39.5841 54.8875 39.5841 55.0354 39.5841C56 39.5841 56.9624 39.5841 57.8201 39.5841Z" fill="white"/>
<path d="M13.9807 31.2449C7.23723 45.914 8.36796 59.9188 17.4275 73.3023C15.1729 75.5526 12.8773 77.8416 10.5726 80.142C8.97542 78.0555 7.47839 75.8598 6.19067 73.523C3.10331 67.9257 1.13305 61.9597 0.377709 55.6093C-0.923665 44.6694 1.14443 34.3986 6.56379 24.8057C7.00289 24.0298 6.97786 24.0526 6.37495 23.3973C5.99956 22.99 5.57638 22.5486 5.40802 22.0435C4.98485 20.7738 5.9586 19.3608 7.31685 19.1902C9.85817 18.8694 12.404 18.5827 14.9454 18.2801C15.5073 18.2141 16.067 18.1253 16.629 18.0821C18.4559 17.9388 19.6208 19.1151 19.4296 20.9536C19.2158 22.9877 18.9541 25.0173 18.7107 27.0492C18.5969 28.0071 18.4627 28.9628 18.3649 29.9207C18.2602 30.9651 17.7551 31.7046 16.7677 32.0709C15.8076 32.4281 15.0113 32.1278 14.347 31.3906C14.3038 31.3428 14.2492 31.3018 14.1968 31.2609C14.1855 31.2518 14.165 31.2586 13.9807 31.2449ZM13.6758 72.9041C9.14606 65.8483 6.80268 58.119 6.76172 49.7161C6.72077 41.3019 8.99135 33.5453 13.5484 26.2733C14.231 27.0083 14.8635 27.6909 15.5801 28.4645C15.8804 25.9184 16.1648 23.5179 16.4561 21.056C13.9784 21.3518 11.5782 21.6362 9.18019 21.9206C9.15288 21.9661 9.12558 22.0093 9.10056 22.0548C9.5078 22.4371 9.8923 22.8489 10.3269 23.1948C10.7227 23.5065 10.6818 23.7613 10.427 24.1482C9.90368 24.9377 9.41908 25.7545 8.9504 26.5782C5.63326 32.3894 3.74263 38.6557 3.08966 45.2906C2.80527 48.1735 2.85988 51.0722 3.13972 53.9619C3.83136 61.0678 6.03141 67.6686 9.73304 73.7687C10.1175 74.4036 10.5339 75.0202 10.9138 75.6118C11.858 74.688 12.7567 73.8074 13.6758 72.9041Z" fill="white"/>
<path d="M29.4243 83.9874C30.844 84.6791 32.2091 85.4072 33.6196 86.0238C39.2802 88.4993 45.216 89.5642 51.377 89.2752C58.3981 88.943 64.8959 86.893 70.8362 83.125C71.314 82.8224 71.5643 82.8224 71.9806 83.2501C73.9873 85.3139 76.0417 87.3344 78.078 89.3685C78.1826 89.4732 78.2804 89.5824 78.4192 89.728C70.0422 95.6166 60.787 98.7702 50.5716 98.9864C40.37 99.2048 30.9873 96.4744 22.2986 90.9089C22.0574 91.1865 21.8094 91.4755 21.5546 91.7576C20.913 92.4698 20.1281 92.7247 19.2112 92.4175C18.2511 92.0944 17.7028 91.3936 17.58 90.4015C17.2023 87.3298 16.8428 84.2581 16.4834 81.1841C16.2923 79.5459 17.489 78.2763 19.1544 78.4105C20.6787 78.5356 22.1962 78.7518 23.716 78.9316C25.3018 79.1181 26.8875 79.3093 28.4733 79.5049C29.4744 79.6278 30.1683 80.1648 30.4982 81.1182C30.8235 82.0579 30.5368 82.8474 29.8111 83.4982C29.7132 83.5869 29.6222 83.6847 29.529 83.7826C29.5108 83.8053 29.5017 83.8395 29.4243 83.9874ZM70.975 86.5198C54.4166 95.9647 36.1382 92.6678 24.7717 84.3878C25.4497 83.7007 26.1254 83.0181 26.8693 82.2649C24.3303 81.9646 21.93 81.6802 19.4729 81.3889C19.7687 83.869 20.053 86.2695 20.3397 88.6677C20.3943 88.6973 20.4489 88.7269 20.5012 88.7565C20.9927 88.2081 21.4864 87.6575 21.9778 87.1068C29.6996 92.62 38.1836 95.6325 47.5662 96.0216C56.9648 96.4107 65.6739 94.1058 73.7302 89.298C72.7928 88.3537 71.8964 87.4481 70.975 86.5198Z" fill="white"/>
<path d="M37.212 55.7799C43.8963 55.7799 50.5329 55.7799 57.2218 55.7799C57.2218 56.483 57.2218 57.1815 57.2218 57.9074C50.5534 57.9074 43.9032 57.9074 37.212 57.9074C37.212 57.2111 37.212 56.5239 37.212 55.7799Z" fill="white"/>
<path d="M37.203 64.9837C37.203 64.2715 37.203 63.598 37.203 62.8904C43.8941 62.8904 50.5512 62.8904 57.2423 62.8904C57.2423 63.598 57.2423 64.2715 57.2423 64.9837C50.5671 64.9837 43.9078 64.9837 37.203 64.9837Z" fill="white"/>
<path d="M57.2741 50.8106C50.5647 50.8106 43.9168 50.8106 37.2188 50.8106C37.2188 50.128 37.2188 49.4431 37.2188 48.7105C37.378 48.6991 37.5373 48.6809 37.6966 48.6809C41.3709 48.6786 45.0475 48.6786 48.7218 48.6763C51.3792 48.6763 54.0388 48.6854 56.6962 48.6672C57.1512 48.6627 57.315 48.7878 57.2809 49.252C57.2445 49.7594 57.2741 50.2736 57.2741 50.8106Z" fill="white"/>
</g>
<defs>
<clipPath id="clip0">
<rect width="99" height="99" fill="white"/>
</clipPath>
</defs>
</svg>
