<svg width="104" height="89" viewBox="0 0 104 89" fill="none" xmlns="http://www.w3.org/2000/svg">
<g clip-path="url(#clip0)">
<path d="M51.9835 88.9955C36.3625 88.9955 20.7428 88.9968 5.12173 88.9942C2.56336 88.9942 0.598691 87.4283 0.0961306 84.9679C-0.170773 83.6578 0.144304 82.4504 0.826535 81.3065C4.3757 75.3612 7.91185 69.4081 11.4506 63.4551C23.4808 43.2198 35.5305 22.9937 47.523 2.73637C49.3744 -0.391427 52.9899 -0.6537 55.021 1.02381C55.6225 1.52109 56.1303 2.18586 56.5326 2.86101C64.1257 15.5903 71.6953 28.3339 79.2702 41.0736C87.2434 54.4833 95.2167 67.8929 103.186 81.3039C104.642 83.7539 104.112 86.548 101.909 88.0983C100.992 88.7436 99.9663 88.9994 98.8453 88.9994C83.2243 88.9929 67.6032 88.9955 51.9835 88.9955ZM52.0226 85.7041C67.4913 85.7041 82.9599 85.7041 98.4299 85.7015C98.7541 85.7015 99.0848 85.7002 99.3999 85.6392C100.168 85.4886 100.731 84.8394 100.663 84.0668C100.626 83.6384 100.438 83.1917 100.214 82.8139C86.1472 59.1302 72.069 35.4542 57.9921 11.777C56.4883 9.24774 54.995 6.71071 53.4769 4.19055C52.753 2.98955 51.3156 2.98696 50.5604 4.1555C50.4784 4.28274 50.4029 4.41517 50.3261 4.54501C38.0733 25.1529 25.8217 45.7608 13.5689 66.3699C10.2853 71.8945 7.00047 77.4178 3.71821 82.9437C3.16227 83.8786 3.15576 84.7095 3.86663 85.212C4.30409 85.5197 4.93815 85.6846 5.48368 85.6846C20.9979 85.7093 36.5096 85.7041 52.0226 85.7041Z" fill="white"/>
<path d="M52.0515 84.022C40.1671 84.022 28.2827 84.0233 16.397 84.0207C14.4506 84.0207 12.9546 82.8301 12.5732 80.9565C12.37 79.9594 12.6096 79.0414 13.1291 78.1702C15.8294 73.6467 18.5192 69.1166 21.2117 64.5892C30.3659 49.193 39.5317 33.8046 48.6559 18.3915C50.0647 16.0116 52.8157 15.8116 54.3612 17.0892C54.8195 17.4671 55.2048 17.9734 55.5108 18.4863C61.2876 28.1709 67.0475 37.8672 72.8101 47.5596C78.8759 57.7623 84.9431 67.9649 91.0064 78.1689C92.1144 80.0334 91.7107 82.1588 90.0351 83.3391C89.3386 83.8298 88.5574 84.0246 87.7046 84.0246C75.8215 84.0207 63.9358 84.022 52.0515 84.022ZM52.0814 81.5174C63.8512 81.5174 75.6197 81.5174 87.3895 81.5161C87.6356 81.5161 87.8882 81.5148 88.1277 81.4681C88.7123 81.3538 89.1394 80.8591 89.0886 80.271C89.0599 79.9451 88.918 79.6049 88.7475 79.318C78.044 61.2991 67.334 43.2853 56.6227 25.2716C55.4782 23.3474 54.3429 21.418 53.1881 19.499C52.6373 18.585 51.5437 18.5824 50.9695 19.4731C50.907 19.5704 50.8497 19.6704 50.7912 19.7691C41.4691 35.4483 32.147 51.1276 22.8249 66.8081C20.3264 71.0109 17.8279 75.2138 15.3307 79.4179C14.9076 80.1295 14.9024 80.7618 15.444 81.1435C15.776 81.3785 16.259 81.5031 16.6744 81.5031C28.4767 81.5213 40.2791 81.5174 52.0814 81.5174Z" fill="white"/>
<path d="M55.2048 36.1547C54.973 39.5772 54.753 42.8569 54.5291 46.1353C54.2882 49.6734 54.0447 53.2115 53.8 56.7496C53.7726 57.1378 53.757 57.5286 53.7023 57.9129C53.5825 58.775 52.8977 59.3814 52.0696 59.3788C51.2181 59.3775 50.4916 58.727 50.4226 57.8454C50.2339 55.4525 50.0685 53.0583 49.8901 50.6641C49.6063 46.8468 49.3173 43.0309 49.0347 39.2137C48.9618 38.2217 48.8642 37.2297 48.8473 36.2365C48.816 34.3993 50.2104 33.0606 52.0735 33.0814C53.8611 33.1022 55.2321 34.5096 55.2048 36.1547Z" fill="white"/>
<path d="M55.3715 65.9589C55.3676 67.7792 53.882 69.2581 52.0632 69.2529C50.2548 69.2477 48.7484 67.7377 48.7575 65.9394C48.7666 64.1321 50.2717 62.6415 52.0827 62.6467C53.9055 62.6506 55.3754 64.1308 55.3715 65.9589Z" fill="white"/>
<path d="M25.5707 75.8747C25.5707 75.3567 25.5603 74.8386 25.5733 74.3205C25.6007 73.2689 26.2816 72.5327 27.2242 72.5197C28.1851 72.5067 28.8946 73.2637 28.9103 74.3491C28.9246 75.3411 28.9272 76.3343 28.909 77.3276C28.8907 78.3871 28.2111 79.1103 27.2581 79.122C26.2816 79.1336 25.5968 78.3975 25.572 77.2977C25.5616 76.8238 25.5707 76.3499 25.5707 75.8747Z" fill="white"/>
<path d="M70.1917 75.8825C70.1917 76.3785 70.2048 76.8757 70.1891 77.3717C70.1579 78.3883 69.49 79.0999 68.5617 79.1232C67.6321 79.1466 66.8978 78.4572 66.8639 77.4509C66.8274 76.3733 66.8287 75.2917 66.8626 74.2141C66.8938 73.213 67.6347 72.5028 68.5473 72.521C69.4704 72.5391 70.1553 73.2572 70.1878 74.2647C70.2061 74.8035 70.1917 75.3436 70.1917 75.8825Z" fill="white"/>
<path d="M42.0888 75.7501C42.0888 75.232 42.0718 74.714 42.0927 74.1959C42.1304 73.2377 42.827 72.5353 43.7305 72.5197C44.6003 72.5041 45.3489 73.1546 45.3932 74.0868C45.4478 75.2281 45.4478 76.3746 45.3997 77.5159C45.3593 78.4909 44.6198 79.1453 43.711 79.122C42.8035 79.0986 42.1252 78.4026 42.0927 77.4328C42.0731 76.8732 42.0888 76.3123 42.0888 75.7501Z" fill="white"/>
<path d="M33.8564 75.7773C33.8551 75.2384 33.8421 74.6983 33.859 74.1595C33.889 73.2143 34.6089 72.5093 35.5138 72.5196C36.3979 72.53 37.1204 73.2156 37.1387 74.1231C37.1634 75.2657 37.1673 76.4109 37.1374 77.5535C37.1139 78.4545 36.3692 79.131 35.4852 79.1232C34.5972 79.1154 33.8955 78.4377 33.8616 77.5249C33.8395 76.9432 33.8564 76.3602 33.8564 75.7773Z" fill="white"/>
<path d="M53.6685 75.8123C53.6685 76.3732 53.688 76.9354 53.6646 77.495C53.6255 78.4415 52.9029 79.1323 51.9915 79.1219C51.1036 79.1128 50.4018 78.4545 50.3732 77.5184C50.338 76.3758 50.3367 75.2307 50.3771 74.0881C50.4096 73.1714 51.1557 72.5054 52.0319 72.5196C52.9107 72.5326 53.6203 73.2182 53.6633 74.1296C53.6893 74.6892 53.6672 75.2514 53.6685 75.8123Z" fill="white"/>
<path d="M58.6147 75.8358C58.6147 75.2749 58.5991 74.7127 58.6173 74.1531C58.6485 73.2131 59.3789 72.5093 60.2851 72.521C61.1691 72.5327 61.88 73.2105 61.9022 74.131C61.9295 75.2736 61.9321 76.4188 61.8995 77.5613C61.8722 78.4715 61.1327 79.1363 60.2448 79.1233C59.3581 79.1103 58.6551 78.4287 58.6199 77.5198C58.5978 76.9589 58.6147 76.3967 58.6147 75.8358Z" fill="white"/>
<path d="M75.134 75.7747C75.134 75.2359 75.1197 74.6958 75.1366 74.1569C75.1665 73.213 75.8878 72.508 76.794 72.5197C77.6794 72.5301 78.3967 73.2156 78.415 74.1258C78.4384 75.2683 78.4423 76.4122 78.4137 77.5561C78.3915 78.4572 77.6481 79.131 76.7615 79.1232C75.8748 79.1154 75.1717 78.4338 75.1392 77.5236C75.1184 76.9407 75.1353 76.3577 75.134 75.7747Z" fill="white"/>
</g>
<defs>
<clipPath id="clip0">
<rect width="104" height="89" fill="white"/>
</clipPath>
</defs>
</svg>
